<?xml version="1.0" standalone="no"?>
<!DOCTYPE svg PUBLIC "-//W3C//DTD SVG 20010904//EN"
 "http://www.w3.org/TR/2001/REC-SVG-20010904/DTD/svg10.dtd">
<svg version="1.0" xmlns="http://www.w3.org/2000/svg"
 width="345.000000pt" height="265.000000pt" viewBox="0 0 345.000000 265.000000"
 preserveAspectRatio="xMidYMid meet">

<g transform="translate(0.000000,265.000000) scale(0.100000,-0.100000)"
fill="#000000" stroke="none">
<path d="M1898 2451 c-26 -17 -55 -45 -64 -63 -9 -18 -154 -409 -321 -868
l-305 -835 32 -280 c33 -293 39 -318 79 -299 11 5 109 93 219 196 l198 187
308 848 c328 901 327 900 291 976 -27 58 -73 90 -184 130 -131 47 -188 49
-253 8z m226 -82 c151 -54 171 -89 130 -220 l-25 -78 -47 18 c-26 10 -108 40
-182 66 -74 27 -138 51 -142 55 -14 11 43 139 74 165 40 34 86 32 192 -6z
m-253 -252 l27 -12 -219 -600 c-121 -330 -238 -651 -260 -713 l-42 -114 -31 6
c-17 4 -34 10 -38 14 -4 4 108 322 248 707 140 385 257 706 259 713 5 15 22
15 56 -1z m144 -51 c33 -14 34 -17 24 -43 -6 -15 -123 -336 -260 -713 -138
-376 -252 -686 -254 -688 -2 -2 -20 2 -40 9 -25 10 -34 18 -30 29 4 8 122 331
262 718 141 386 258 702 260 702 2 0 19 -7 38 -14z m154 -57 c24 -8 31 -16 26
-28 -4 -9 -121 -332 -262 -718 l-255 -701 -37 13 c-21 7 -35 18 -33 26 2 10
474 1313 509 1407 6 15 12 15 52 1z m-709 -1450 c80 -29 149 -55 153 -59 5 -4
-54 -66 -129 -139 -76 -72 -139 -129 -141 -127 -4 4 -43 322 -43 354 0 12 3
22 8 22 4 0 72 -23 152 -51z"/>
<path d="M725 1910 c-11 -4 -116 -104 -232 -222 -204 -205 -213 -216 -213
-253 0 -38 9 -48 218 -257 245 -246 258 -254 313 -199 54 54 44 71 -161 276
l-180 180 182 182 c168 168 182 185 182 218 0 57 -59 97 -109 75z"/>
<path d="M2653 1910 c-28 -11 -43 -40 -43 -81 0 -28 22 -54 179 -213 l180
-181 -180 -181 c-167 -169 -179 -184 -179 -218 0 -45 36 -86 77 -86 39 0 470
429 479 478 7 33 2 38 -217 257 -139 139 -234 226 -249 229 -14 3 -35 1 -47
-4z"/>
</g>
</svg>
